<?xml version="1.0" standalone="no"?><!DOCTYPE svg PUBLIC "-//W3C//DTD SVG 1.1//EN" "http://www.w3.org/Graphics/SVG/1.1/DTD/svg11.dtd"><svg t="1574650725606" class="icon" viewBox="0 0 1079 1024" version="1.1" xmlns="http://www.w3.org/2000/svg" p-id="15881" xmlns:xlink="http://www.w3.org/1999/xlink" width="67.4375" height="64"><defs><style type="text/css"></style></defs><path d="M 948.625 930.022 h -62.7712 v -62.7115 h 62.7712 v 62.7115 Z M 477.807 616.491 h 62.7712 v 62.7115 h -62.7712 v -62.7115 Z m 0 125.397 h 62.7712 v -62.6944 h 125.551 v -62.7115 h 219.716 v 62.7115 h 62.7712 V 804.608 h -62.7712 v 62.7115 h -31.3941 v 62.7029 h -62.7712 v -62.7029 h 31.3941 V 804.608 h -31.3941 v 62.7115 h -62.7712 v 62.7029 h -62.7712 V 804.608 h 62.7712 v -62.72 h 62.7712 v -62.6944 h -62.7712 v 62.6944 h -62.7712 v 62.72 H 540.587 v 62.7115 h -62.7712 V 741.888 Z m 62.7797 125.431 h 62.7712 v 62.7029 h 55.9275 c -37.9221 11.0677 -78.0373 17.0155 -119.552 17.0155 s -81.6213 -5.94773 -119.561 -17.0155 h 120.405 v -62.7029 Z m -219.708 -31.3515 H 226.714 V 741.888 h 94.1653 v 94.08 Z m 31.3856 -125.423 H 195.328 v 156.774 h 156.937 V 710.545 Z m 62.7712 219.477 H 132.54 V 647.851 h 282.487 v 282.172 Z m 408.038 -470.289 h 62.7712 v 62.7115 h 62.7627 V 402.167 c 11.0763 37.8795 17.0325 77.952 17.0325 119.415 s -5.95627 81.536 -17.0325 119.415 v -55.8592 H 760.303 v -62.7029 h 62.7712 v -62.7029 Z M 477.807 240.265 h 62.7712 v -62.7115 h 62.7712 v 125.406 H 540.587 v 62.7115 h -62.7712 V 240.265 Z M 258.099 459.733 H 540.587 V 365.67 h 62.7712 v 94.0629 h 156.945 v 62.7115 h -62.7712 v 62.7029 H 603.358 v -62.7029 H 540.587 v 62.7029 H 383.65 v -62.7029 h -62.7712 v 62.7029 H 195.328 v -62.7029 h 62.7712 v -62.7115 Z m 62.7797 -156.774 H 226.714 V 208.905 h 94.1653 v 94.0544 Z m 31.3856 -125.406 H 195.328 v 156.766 h 156.937 V 177.553 Z m 188.322 0 h -62.7712 V 114.859 h -62.7712 v 282.155 H 132.548 v 62.72 h 62.7712 v 62.7115 h -62.7712 v 124.279 a 425.062 425.062 0 0 1 -18.7392 -125.141 c 0 -43.5456 6.57067 -85.5552 18.7392 -125.124 V 114.842 H 414.464 a 426.428 426.428 0 0 1 125.269 -18.7136 c 43.6053 0 85.6661 6.56213 125.286 18.7221 H 540.587 v 62.7029 Z m 219.716 31.3515 h 94.1568 v 94.0459 H 760.303 V 208.905 Z m -31.3941 125.414 h 156.945 V 177.553 H 728.909 v 156.766 Z m -62.7712 -219.477 h 282.487 v 282.172 H 666.138 V 114.842 Z" fill="#ffffff" p-id="15882"></path></svg>