<?xml version="1.0" standalone="no"?><!DOCTYPE svg PUBLIC "-//W3C//DTD SVG 1.1//EN" "http://www.w3.org/Graphics/SVG/1.1/DTD/svg11.dtd"><svg t="1574406566105" class="icon" viewBox="0 0 1024 1024" version="1.1" xmlns="http://www.w3.org/2000/svg" p-id="11125" width="64" height="64" xmlns:xlink="http://www.w3.org/1999/xlink"><defs><style type="text/css"></style></defs><path d="M896 128H128c-46.933333 0-85.333333 38.4-85.333333 85.333333v597.333334c0 46.933333 38.4 85.333333 85.333333 85.333333h768c46.933333 0 85.333333-38.4 85.333333-85.333333V213.333333c0-46.933333-38.4-85.333333-85.333333-85.333333z m0 85.333333v21.333334l-384 268.8-384-268.8V213.333333h768zM128 810.666667V337.066667l358.4 251.733333c8.533333 4.266667 17.066667 8.533333 25.6 8.533333s17.066667-4.266667 25.6-8.533333L896 337.066667V810.666667H128z" p-id="11126" fill="#ffffff"></path></svg>