<?xml version="1.0" standalone="no"?><!DOCTYPE svg PUBLIC "-//W3C//DTD SVG 1.1//EN" "http://www.w3.org/Graphics/SVG/1.1/DTD/svg11.dtd"><svg t="1574650320848" class="icon" viewBox="0 0 1024 1024" version="1.1" xmlns="http://www.w3.org/2000/svg" p-id="13156" xmlns:xlink="http://www.w3.org/1999/xlink" width="64" height="64"><defs><style type="text/css"></style></defs><path d="M716.396715 358.984001c21.115923-2.552126 42.231847-8.528234 63.304791-17.865903-14.921851 22.970154-33.113165 42.406832-54.579059 58.592466l0 14.638395c0 30.125111-4.189416 60.272735-12.739139 90.396823-8.463766 30.040177-21.509896 59.095933-39.09132 86.865393-17.538445 27.76946-38.567387 52.200896-62.998823 73.4038-24.343431 21.289885-53.661154 38.283931-87.780229 50.957579-34.117029 12.739139-70.851675 19.130709-110.116957 19.130709-66.227354 0-122.463146-15.313777-168.797427-45.830815 8.769734 1.264806 17.408485 1.855254 26.134217 1.855254 47.468105 0 93.01444-17.758456 136.381134-53.379745-23.559579-0.50142-44.763506-7.962346-63.566758-22.686698-18.759249-14.615882-48.470945-38.763862-55.450916-61.254086 24.605398 5.89015 52.396347 7.372921 66.315358 3.751441-21.858844-4.426823-110.902856-63.523779-109.50809-111.12082 15.705704 8.834202 52.31039 25.217335 71.027683 13.045107-59.641355-53.488215-52.486398-127.787408-26.352181-170.870646 15.181771 32.983205 23.995507 61.930491 92.403526 104.425328 37.434587 23.166629 85.905532 27.092032 130.97296 29.644157-1.658779-7.263427 0-34.530444 0-44.654013 0-31.019481 16.054651-47.118134 24.823362-56.627718 20.812001-22.578228 47.338145-33.07121 77.920674-33.07121 31.41243 0 58.3305 11.868305 80.58127 35.622312 24.431435-5.102205 47.642067-14.244422 69.498864-27.375487C756.535901 323.754638 740.436224 344.565617 716.396715 358.984001zM958.70846 243.958244l0 536.105001c0 98.730629-79.971379 178.722474-178.700985 178.722474L243.903497 958.785719c-98.642624 0-178.61298-79.991846-178.61298-178.722474L65.290517 243.958244c0-98.642624 79.969333-178.744987 178.61298-178.744987l536.105001 0C878.73708 65.213257 958.70846 145.31562 958.70846 243.958244zM869.401458 288.612257c0-74.015737-60.075237-133.961014-134.069485-133.961014L288.578999 154.651242c-74.03825 0-134.027529 59.945277-134.027529 133.961014l0 446.775486c0 74.015737 59.989279 133.983527 134.027529 133.983527l446.752973 0c73.994248 0 134.069485-59.96779 134.069485-133.983527L869.401458 288.612257z" p-id="13157" fill="#ffffff"></path></svg>