<?xml version="1.0" standalone="no"?><!DOCTYPE svg PUBLIC "-//W3C//DTD SVG 1.1//EN" "http://www.w3.org/Graphics/SVG/1.1/DTD/svg11.dtd"><svg t="1574650188370" class="icon" viewBox="0 0 1024 1024" version="1.1" xmlns="http://www.w3.org/2000/svg" p-id="11172" xmlns:xlink="http://www.w3.org/1999/xlink" width="64" height="64"><defs><style type="text/css"></style></defs><path d="M832 128l-640 0c-105.59488 0-192 86.40512-192 192l0 384c0 105.59488 86.40512 192 192 192l640 0c105.59488 0 192-86.40512 192-192l0-384c0-105.59488-86.40512-192-192-192zM960 704c0 33.97632-13.37344 66.06848-37.66272 90.33728s-56.36096 37.66272-90.33728 37.66272l-640 0c-33.97632 0-66.06848-13.37344-90.33728-37.66272s-37.66272-56.36096-37.66272-90.33728l0-384c0-33.97632 13.37344-66.06848 37.66272-90.33728s56.36096-37.66272 90.33728-37.66272l640 0c33.97632 0 66.06848 13.37344 90.33728 37.66272s37.66272 56.36096 37.66272 90.33728l0 384zM384 768l320-256-320-256z" p-id="11173" fill="#ffffff"></path></svg>